<?xml version="1.0" standalone="no"?>
<!DOCTYPE svg PUBLIC "-//W3C//DTD SVG 20010904//EN"
 "http://www.w3.org/TR/2001/REC-SVG-20010904/DTD/svg10.dtd">
<svg version="1.0" xmlns="http://www.w3.org/2000/svg"
 width="500.000000pt" height="500.000000pt" viewBox="0 0 500.000000 500.000000"
 preserveAspectRatio="xMidYMid meet">

<g transform="translate(0.000000,500.000000) scale(0.100000,-0.100000)"
fill="#000000" stroke="none">
<path d="M0 2500 l0 -2500 2500 0 2500 0 0 2500 0 2500 -2500 0 -2500 0 0
-2500z m2510 195 l190 -136 45 32 c25 18 45 35 45 39 0 3 -43 36 -96 74 l-96
68 48 34 c27 19 53 33 60 30 20 -8 284 -199 284 -207 0 -9 -278 -209 -291
-209 -6 0 -97 63 -204 140 l-194 140 -46 -32 c-25 -17 -45 -35 -45 -38 0 -3
43 -37 95 -75 53 -38 92 -71 88 -75 -34 -27 -83 -60 -91 -60 -11 0 -286 198
-289 208 -2 4 21 24 50 44 28 20 93 66 142 102 50 36 96 64 103 61 7 -2 98
-66 202 -140z m-354 -320 l146 -105 89 65 c49 36 95 68 102 71 7 2 54 -25 104
-61 51 -36 97 -65 103 -65 6 0 73 45 150 100 76 55 141 100 144 100 3 0 6 -31
6 -68 l0 -69 -150 -107 -150 -108 -100 71 -99 71 -100 -70 -100 -70 -150 107
-151 108 0 67 c0 38 2 68 5 68 3 0 71 -47 151 -105z m2330 -399 c11 -12 14
-64 14 -285 l0 -271 -1985 0 -1985 0 0 263 c0 144 3 272 6 285 l6 22 1965 0
c1689 0 1966 -2 1979 -14z"/>
<path d="M1605 1886 c-86 -38 -120 -154 -75 -253 45 -100 180 -122 258 -42 59
60 64 176 12 250 -37 51 -132 73 -195 45z m126 -42 c80 -41 77 -208 -4 -251
-42 -21 -103 -12 -136 21 -24 24 -26 34 -26 107 0 78 1 81 33 110 37 33 85 38
133 13z"/>
<path d="M3453 1885 c-36 -15 -53 -42 -53 -82 0 -46 25 -71 88 -88 101 -28
122 -41 122 -75 0 -23 -7 -33 -30 -45 -36 -19 -61 -19 -105 -1 -22 10 -37 24
-41 40 -6 26 -37 36 -49 16 -8 -14 22 -67 48 -84 67 -45 182 -23 211 39 33 68
3 107 -112 145 -81 27 -104 48 -86 78 27 43 126 41 146 -4 12 -27 48 -33 48
-8 0 66 -105 105 -187 69z"/>
<path d="M649 1853 c-6 -21 -34 -94 -60 -162 -27 -68 -49 -128 -49 -133 0 -5
10 -8 22 -6 16 2 27 16 39 48 l17 45 71 3 72 3 22 -51 c17 -40 26 -50 45 -50
19 0 23 4 18 18 -4 9 -35 86 -69 170 -58 143 -63 152 -88 152 -23 0 -30 -6
-40 -37z m73 -88 l26 -75 -55 0 c-62 0 -60 -9 -27 92 11 32 21 58 24 58 3 0
17 -34 32 -75z"/>
<path d="M891 1773 c0 -65 5 -133 12 -152 18 -51 58 -76 121 -76 113 0 136 38
136 219 0 119 -1 126 -20 126 -19 0 -20 -7 -21 -112 -1 -169 -13 -193 -89
-193 -81 0 -90 17 -90 176 l0 129 -25 0 -25 0 1 -117z"/>
<path d="M1212 1873 c2 -14 15 -19 61 -21 l57 -3 0 -149 c0 -143 1 -150 20
-150 19 0 20 7 20 150 l0 150 55 0 c48 0 55 2 55 20 0 19 -7 20 -136 20 -124
0 -135 -2 -132 -17z"/>
<path d="M2160 1720 l0 -170 25 0 c24 0 25 2 25 70 l0 70 76 0 c70 0 78 2 105
29 40 40 41 106 3 145 -25 25 -32 26 -130 26 l-104 0 0 -170z m204 108 c21
-30 20 -54 -4 -78 -16 -16 -33 -20 -85 -20 l-65 0 0 60 0 60 69 0 c61 0 72 -3
85 -22z"/>
<path d="M2529 1863 c-11 -29 -95 -251 -110 -290 -7 -20 -5 -23 16 -23 20 0
27 9 42 50 l18 51 74 -3 73 -3 17 -45 c13 -37 22 -46 44 -48 l27 -3 -19 48
c-119 293 -116 288 -144 291 -22 3 -29 -2 -38 -25z m59 -75 c39 -106 41 -98
-23 -98 -50 0 -56 2 -50 18 4 9 16 43 27 75 11 31 21 57 23 57 2 0 12 -24 23
-52z"/>
<path d="M2770 1720 c0 -163 1 -170 20 -170 18 0 20 7 20 75 l0 75 49 0 c45 0
52 -3 78 -37 16 -21 40 -55 52 -75 17 -28 29 -38 48 -38 19 0 24 4 19 16 -11
29 -78 124 -87 124 -20 0 -7 18 20 29 54 23 69 104 26 146 -23 24 -31 25 -135
25 l-110 0 0 -170z m211 111 c10 -12 15 -30 12 -42 -10 -36 -45 -50 -115 -47
l-63 3 -3 49 c-2 32 1 52 10 58 7 4 42 6 78 4 50 -4 68 -9 81 -25z"/>
<path d="M3082 1873 c2 -14 15 -19 56 -21 l52 -3 0 -150 0 -149 25 0 25 0 0
150 0 150 55 0 c48 0 55 2 55 20 0 19 -7 20 -136 20 -124 0 -135 -2 -132 -17z"/>
<path d="M3736 1859 c-14 -17 -26 -37 -26 -45 0 -24 36 -16 48 11 13 29 52 41
80 26 43 -23 31 -88 -18 -97 -41 -9 -43 -44 -2 -44 16 0 36 -8 45 -18 39 -42
5 -112 -53 -112 -29 0 -38 6 -64 44 -8 12 -19 17 -30 13 -22 -9 -20 -20 9 -55
77 -92 232 -12 193 100 -6 16 -19 33 -29 39 -19 10 -19 10 1 36 28 36 25 69
-9 104 -24 23 -38 29 -74 29 -38 0 -49 -5 -71 -31z"/>
<path d="M4027 1879 c-9 -5 -26 -28 -37 -49 -26 -51 -28 -176 -3 -227 31 -66
124 -81 174 -27 20 21 24 36 24 86 0 53 -3 62 -28 84 -33 28 -91 32 -125 8
-21 -14 -22 -14 -22 5 0 58 49 108 94 97 14 -3 28 -15 31 -26 8 -26 45 -27 45
-1 0 47 -102 80 -153 50z m100 -165 c21 -21 25 -32 20 -65 -7 -52 -22 -69 -62
-69 -44 0 -68 29 -68 82 0 72 61 101 110 52z"/>
<path d="M4292 1874 c-39 -27 -55 -73 -56 -159 -1 -92 16 -135 64 -160 39 -20
68 -19 106 4 60 37 69 133 17 185 -31 31 -95 36 -125 9 -17 -15 -18 -14 -18
19 0 41 37 88 70 88 11 0 32 -11 46 -25 14 -14 31 -25 39 -25 23 0 18 28 -10
55 -29 30 -97 34 -133 9z m98 -152 c30 -24 33 -91 6 -121 -27 -30 -70 -27 -95
5 -28 36 -27 79 4 109 29 30 55 32 85 7z"/>
<path d="M1852 1468 c3 -10 43 -14 141 -16 117 -2 137 0 137 13 0 13 -21 15
-141 15 -108 0 -140 -3 -137 -12z"/>
</g>
</svg>
